<svg xmlns="http://www.w3.org/2000/svg" width="128" viewBox="0 0 200 60" class="v-mid"><g fill="#2B2D42" fill-rule="evenodd"><path d="M7.5 0h45A7.5 7.5 0 0 1 60 7.5v42.762c0 5.378-3.015 8.577-9.045 9.598a10 10 0 0 1-1.67.14h-38.57a10 10 0 0 1-1.67-.14C3.015 58.839 0 55.64 0 50.262V7.5A7.5 7.5 0 0 1 7.5 0zm2.66 3.75c-2.23 0-3.037.232-3.852.668a4.543 4.543 0 0 0-1.89 1.89c-.436.815-.668 1.623-.668 3.852v37.805c0 2.23.232 3.037.668 3.852a4.543 4.543 0 0 0 1.89 1.89c.815.436 1.623.668 3.852.668h39.68c2.23 0 3.037-.232 3.852-.668a4.543 4.543 0 0 0 1.89-1.89c.436-.815.668-1.623.668-3.852V10.16c0-2.23-.232-3.037-.668-3.852a4.543 4.543 0 0 0-1.89-1.89c-.815-.436-1.623-.668-3.852-.668H10.16z"/><path stroke="#2B2D42" stroke-width=".5" d="M38.427 11.382v16.352h-2.029V26.31h-4.077v1.663h-2.008v-16.59h8.114zm-6.083 12.987h4.077V13.302h-4.077v11.067zm-11.142-8.89h3.261v-2.197c-.875.139-1.77.238-2.645.297l-.676-1.841c3.103-.257 5.589-.733 7.418-1.425l.975 1.702a28.83 28.83 0 0 1-3.083.91v2.555h3.182v1.92h-3.182v.713c1.114.93 2.228 2 3.361 3.187L28.6 23.102c-.835-1.228-1.551-2.218-2.148-2.97v8.216h-1.989v-7.701a20.233 20.233 0 0 1-2.943 4.355l-.895-2.276c1.73-1.545 3.003-3.287 3.838-5.227V17.4h-3.261v-1.92zm-9.64 18.546h2.327v5.959h2.327c.14-1.683.657-3.069 1.571-4.138 1.114-1.405 2.685-2.098 4.674-2.098 1.989 0 3.54.693 4.674 2.098 1.074 1.307 1.63 3.069 1.63 5.247 0 2.177-.556 3.92-1.63 5.246-1.134 1.386-2.685 2.099-4.674 2.099-1.989 0-3.56-.713-4.674-2.099-.954-1.148-1.471-2.594-1.59-4.375h-2.308v6.196h-2.326V34.025zm10.899 1.762c-1.273 0-2.247.475-2.943 1.445-.696.97-1.035 2.257-1.035 3.86 0 1.584.339 2.871 1.035 3.822.696.99 1.67 1.484 2.943 1.484 1.253 0 2.227-.495 2.943-1.484.677-.95 1.035-2.238 1.035-3.821 0-1.604-.358-2.89-1.035-3.86-.716-.971-1.69-1.446-2.943-1.446zm17.561-5.464h2.486l1.85 2.89h-1.472l-2.864-2.89zm1.591 3.702h2.645l5.43 14.135h-2.486l-1.293-3.543h-5.947L38.67 48.16h-2.486l5.429-14.135zm-.955 8.691h4.555l-2.228-6.197h-.08l-2.247 6.197z"/><path d="M74.66 42.5V19.314h10.766c5.096 0 8.809 3.273 8.809 7.965 0 4.691-3.713 7.965-8.809 7.965h-4.995V42.5H74.66zm5.771-12.521h4.455c1.992 0 3.409-1.08 3.409-2.7s-1.418-2.7-3.409-2.7h-4.455v5.4zm27.937 12.926c-6.75 0-12.454-5.501-12.454-12.015s5.704-11.981 12.454-11.981c6.783 0 12.487 5.467 12.487 11.981s-5.704 12.015-12.487 12.015zm0-5.231c3.543 0 6.547-3.105 6.547-6.784 0-3.645-3.004-6.75-6.547-6.75-3.544 0-6.548 3.105-6.548 6.75 0 3.679 3.004 6.784 6.548 6.784zm33.808-13.197H129.69v3.612h11.34v5.163h-11.34v4.084h12.487V42.5h-18.258V19.314h18.258v5.163zM145.51 42.5V19.314h8.471c7.965 0 13.568 4.792 13.568 11.576 0 6.784-5.603 11.61-13.568 11.61h-8.471zm5.771-5.231h3.577c3.95 0 6.784-2.666 6.784-6.379 0-3.713-2.835-6.345-6.784-6.345h-3.577v12.724zm19.566 5.231V19.314h5.772V42.5h-5.772zm15.651 0V24.477h-7.053v-5.163h19.845v5.163h-7.02V42.5h-5.772z"/></g></svg>
